<?xml version="1.0" encoding="UTF-8"?><svg xmlns="http://www.w3.org/2000/svg" xmlns:xlink="http://www.w3.org/1999/xlink" viewBox="0 0 400 400"><defs><style>.cls-1{fill:#fff;}.cls-2,.cls-3{fill:#ff6258;}.cls-3{filter:url(#drop-shadow-2);}</style><filter id="drop-shadow-2" filterUnits="userSpaceOnUse"><feOffset dx="12.75" dy="12.75"/><feGaussianBlur result="blur" stdDeviation="9.11"/><feFlood flood-color="#000" flood-opacity=".25"/><feComposite in2="blur" operator="in"/><feComposite in="SourceGraphic"/></filter></defs><g id="Layer_1"><circle class="cls-3" cx="200" cy="200" r="174"/></g><g id="Layer_2"><path class="cls-1" d="m194.5,112.75c46.25,0,76.75,29.25,76.75,87.25s-30.5,87.25-76.75,87.25h-65.75V112.75h65.75m-27.75,140.75h27.75c22.5,0,36.5-12.25,36.5-40v-27c0-27.75-14-40-36.5-40h-27.75v107m27.75-155.75h-80.75v204.5h80.75c27.58,0,50.66-9.24,66.75-26.72,16.59-18.02,25-43.43,25-75.53s-8.41-57.52-25-75.53c-16.09-17.48-39.17-26.72-66.75-26.72h0Zm-12.75,63.75h12.75c12.91,0,21.5,4.25,21.5,25v27c0,20.75-8.59,25-21.5,25h-12.75v-77h0Z"/><rect class="cls-2" x="129" y="91.4" width="37" height="228.5"/></g></svg>